<svg xmlns="http://www.w3.org/2000/svg" viewBox="0 0 32 32" width="32" height="32">
  <defs>
    <linearGradient id="neuralGradient" x1="0%" y1="0%" x2="100%" y2="100%">
      <stop offset="0%" style="stop-color:#13294B;stop-opacity:1" />
      <stop offset="100%" style="stop-color:#FF5F05;stop-opacity:1" />
    </linearGradient>
  </defs>

  <!-- Background with rounded corners -->
  <rect width="32" height="32" rx="6" fill="url(#neuralGradient)"/>

  <!-- Brain icon (lucide-react style) -->
  <g transform="translate(8, 8)" fill="none" stroke="white" stroke-width="1.5" stroke-linecap="round" stroke-linejoin="round">
    <!-- Left hemisphere -->
    <path d="M12 4.5C10.5 3 8.5 2.5 6.5 3.5C4.5 4.5 4 6.5 4 8C4 9.5 4.5 11 5.5 12C4.5 12.5 3.5 13.5 3.5 15C3.5 16.5 4.5 17.5 6 17.5"/>
    <!-- Right hemisphere -->
    <path d="M12 4.5C13.5 3 15.5 2.5 17.5 3.5C19.5 4.5 20 6.5 20 8C20 9.5 19.5 11 18.5 12C19.5 12.5 20.5 13.5 20.5 15C20.5 16.5 19.5 17.5 18 17.5"/>
    <!-- Center connection -->
    <path d="M12 4.5V13.5"/>
    <!-- Bottom curves -->
    <path d="M6 17.5C6.5 19 8 20 10 20H14C16 20 17.5 19 18 17.5"/>
  </g>
</svg>
